<?xml version="1.0" encoding="utf-8"?>
<!-- Generator: Adobe Illustrator 23.0.1, SVG Export Plug-In . SVG Version: 6.00 Build 0)  -->
<svg version="1.1" id="Layer_1" xmlns="http://www.w3.org/2000/svg" xmlns:xlink="http://www.w3.org/1999/xlink" x="0px" y="0px"
	 viewBox="0 0 186.6 60.5" style="enable-background:new 0 0 186.6 60.5;" xml:space="preserve">
<style type="text/css">
	.st0{fill:#FFFFFF;}
</style>
<g id="XMLID_1_">
	<g id="XMLID_7_">
		<path id="XMLID_59_" class="st0" d="M76.1,13.1h-4.8v12.7h-1.9V13.1h-4.7v-1.7h11.4V13.1z"/>
		<path id="XMLID_61_" class="st0" d="M85.8,25.7h-1.6v-1.5h0c-0.8,1.2-1.9,1.8-3.3,1.8c-0.7,0-1.4-0.2-2-0.5
			c-0.6-0.3-1-0.8-1.2-1.4c-0.2-0.6-0.3-1.4-0.3-2.3v-6.4h1.8v5.8c0,0.9,0,1.6,0.1,2c0.1,0.4,0.3,0.7,0.7,1c0.4,0.3,0.8,0.4,1.3,0.4
			c0.7,0,1.3-0.2,1.9-0.7c0.6-0.5,0.9-1.4,0.9-2.9v-5.6h1.8V25.7z"/>
		<path id="XMLID_63_" class="st0" d="M94.4,15.7l-0.6,1.6c-0.4-0.3-0.9-0.4-1.3-0.4c-0.7,0-1.2,0.3-1.5,0.9
			c-0.3,0.6-0.5,1.4-0.5,2.5v5.5h-1.8V15.3h1.6v1.6h0c0.6-1.2,1.3-1.8,2.2-1.8C93.2,15.1,93.8,15.3,94.4,15.7z"/>
		<path id="XMLID_65_" class="st0" d="M104.6,25.7h-2.2L99,20.4l-1.2,1.2v4.1H96V11.4h1.8v8.2l4.2-4.2h2.3l-4,3.8L104.6,25.7z"/>
		<path id="XMLID_67_" class="st0" d="M120.1,25.7h-1.8v-6.6c0-0.5,0-0.9-0.1-1.2c-0.1-0.3-0.2-0.6-0.5-0.9
			c-0.3-0.3-0.7-0.4-1.3-0.4c-0.7,0-1.3,0.2-1.8,0.7c-0.5,0.5-0.8,1.3-0.8,2.4v6h-1.8V19c0-0.9-0.2-1.5-0.5-1.9
			c-0.3-0.3-0.8-0.5-1.3-0.5c-0.8,0-1.4,0.3-1.9,0.8c-0.5,0.5-0.7,1.5-0.7,2.9v5.4H106V15.3h1.6v1.4h0c0.7-1.1,1.7-1.7,3.1-1.7
			c0.8,0,1.4,0.2,1.9,0.5c0.5,0.3,0.9,0.8,1.1,1.4c0.8-1.2,1.8-1.8,3.2-1.8c1.1,0,1.9,0.3,2.4,0.9c0.5,0.6,0.8,1.5,0.8,2.6V25.7z"/>
		<path id="XMLID_69_" class="st0" d="M131.8,21H124c0.1,1.1,0.4,2,1,2.6c0.6,0.6,1.3,0.9,2.2,0.9c0.7,0,1.2-0.2,1.7-0.5
			c0.5-0.4,0.8-0.9,1-1.6l1.8,0.2c-0.3,1.1-0.8,1.9-1.6,2.5c-0.8,0.6-1.8,0.9-2.9,0.9c-1.6,0-2.8-0.5-3.7-1.4
			c-0.9-1-1.3-2.3-1.3-3.9c0-1.6,0.4-3,1.3-4c0.9-1,2.1-1.5,3.6-1.5c0.8,0,1.5,0.2,2.2,0.5c0.7,0.3,1.3,0.9,1.8,1.7
			C131.5,18.1,131.8,19.3,131.8,21z M130,19.5c-0.1-1.1-0.4-1.8-1-2.3c-0.6-0.5-1.2-0.7-1.9-0.7c-0.8,0-1.5,0.3-2,0.8
			c-0.5,0.6-0.8,1.3-0.9,2.2H130z"/>
		<path id="XMLID_72_" class="st0" d="M142.4,25.7h-1.8v-6.3c0-1.1-0.2-1.8-0.6-2.2c-0.4-0.4-0.9-0.6-1.6-0.6c-0.5,0-1,0.1-1.5,0.4
			c-0.5,0.3-0.8,0.6-1,1.1c-0.2,0.5-0.3,1.1-0.3,2v5.7h-1.8V15.3h1.6v1.5h0c0.4-0.6,0.8-1,1.4-1.3c0.5-0.3,1.2-0.4,1.9-0.4
			c0.5,0,1.1,0.1,1.6,0.3c0.5,0.2,1,0.5,1.3,0.9c0.3,0.4,0.5,0.8,0.6,1.3c0.1,0.4,0.1,1,0.1,1.8V25.7z"/>
		<path id="XMLID_74_" class="st0" d="M147.1,13.4h-1.8v-2h1.8V13.4z M147.1,25.7h-1.8V15.3h1.8V25.7z"/>
		<path id="XMLID_77_" class="st0" d="M156.1,18.3c-0.1-0.6-0.3-1-0.7-1.3c-0.4-0.3-0.9-0.4-1.6-0.4c-0.7,0-1.2,0.1-1.6,0.3
			c-0.4,0.2-0.6,0.6-0.6,1c0,0.4,0.2,0.7,0.5,0.9c0.3,0.2,1,0.4,2,0.6c1.1,0.3,1.9,0.5,2.5,0.7c0.5,0.2,1,0.5,1.3,0.9
			c0.3,0.4,0.5,0.9,0.5,1.6c0,0.9-0.4,1.7-1.1,2.3c-0.8,0.6-1.8,1-3,1c-1.3,0-2.3-0.3-3.1-0.8c-0.7-0.6-1.2-1.4-1.4-2.5l1.8-0.3
			c0.1,0.7,0.4,1.3,0.8,1.6c0.4,0.4,1.1,0.5,1.9,0.5c0.8,0,1.4-0.2,1.8-0.5c0.4-0.3,0.6-0.7,0.6-1.2c0-0.3-0.1-0.6-0.3-0.8
			c-0.2-0.2-0.4-0.3-0.7-0.4c-0.3-0.1-0.9-0.3-1.9-0.5c-1.5-0.4-2.5-0.8-2.9-1.3c-0.5-0.5-0.7-1.1-0.7-1.8c0-0.9,0.3-1.6,1-2.1
			c0.7-0.6,1.6-0.8,2.8-0.8c1.2,0,2.2,0.2,2.9,0.7c0.7,0.5,1.1,1.2,1.2,2.2L156.1,18.3z"/>
		<path id="XMLID_79_" class="st0" d="M164.6,25.7c-0.5,0.1-1,0.2-1.3,0.2c-0.8,0-1.3-0.1-1.7-0.4c-0.4-0.3-0.6-0.6-0.6-1
			c-0.1-0.4-0.1-1-0.1-1.7v-6h-1.3v-1.4h1.3v-2.6l1.8-1.1v3.7h1.8v1.4h-1.8v6.1c0,0.5,0.1,0.9,0.2,1.1c0.1,0.2,0.4,0.3,0.8,0.3
			c0.3,0,0.5,0,0.8-0.1L164.6,25.7z"/>
		<path id="XMLID_81_" class="st0" d="M175.7,25.7h-1.9c-0.2-0.3-0.3-0.8-0.4-1.3c-1.2,1-2.5,1.5-3.8,1.5c-1.1,0-2-0.3-2.6-0.8
			c-0.6-0.5-1-1.3-1-2.2c0-0.9,0.3-1.6,0.9-2.1c0.6-0.6,1.7-0.9,3.2-1.1l1.6-0.2c0.6-0.1,1.1-0.2,1.5-0.4c0-0.5,0-0.9,0-1.1
			c0-0.2-0.1-0.4-0.3-0.7c-0.2-0.2-0.4-0.4-0.8-0.6c-0.4-0.1-0.8-0.2-1.4-0.2c-0.8,0-1.4,0.1-1.8,0.4c-0.4,0.3-0.7,0.8-0.9,1.6
			l-1.7-0.2c0.2-1.1,0.7-1.9,1.5-2.4c0.8-0.5,1.9-0.8,3.2-0.8c1.2,0,2.2,0.2,2.7,0.6c0.6,0.4,0.9,0.8,1.1,1.3c0.1,0.5,0.2,1.2,0.2,2
			v2.4c0,1.4,0,2.4,0.1,2.9C175.3,24.8,175.4,25.3,175.7,25.7z M173.3,21.2v-0.6c-0.9,0.3-2,0.6-3.4,0.7c-1.3,0.2-2,0.7-2,1.7
			c0,0.5,0.2,0.9,0.5,1.2c0.4,0.3,0.9,0.5,1.5,0.5c0.9,0,1.6-0.3,2.3-0.8C173,23.3,173.3,22.4,173.3,21.2z"/>
		<path id="XMLID_84_" class="st0" d="M186.6,25.7h-1.8v-6.3c0-1.1-0.2-1.8-0.6-2.2c-0.4-0.4-0.9-0.6-1.6-0.6c-0.5,0-1,0.1-1.5,0.4
			s-0.8,0.6-1,1.1c-0.2,0.5-0.3,1.1-0.3,2v5.7h-1.8V15.3h1.6v1.5h0c0.4-0.6,0.8-1,1.4-1.3c0.5-0.3,1.2-0.4,1.9-0.4
			c0.5,0,1.1,0.1,1.6,0.3c0.5,0.2,1,0.5,1.3,0.9c0.3,0.4,0.5,0.8,0.6,1.3c0.1,0.4,0.1,1,0.1,1.8V25.7z"/>
		<path id="XMLID_57_" class="st0" d="M77.7,50h-2.1l-1.7-4.4h-6L66.3,50h-2l5.5-14.4h2L77.7,50z M73.3,44.1c-1.2-3.1-1.8-4.9-2-5.3
			c-0.2-0.4-0.3-1-0.5-1.7h0c-0.2,1-0.4,1.9-0.7,2.7l-1.6,4.3H73.3z"/>
		<path id="XMLID_88_" class="st0" d="M81,37.6h-1.8v-2H81V37.6z M81,50h-1.8V39.6H81V50z"/>
		<path id="XMLID_91_" class="st0" d="M89.9,39.9l-0.6,1.6c-0.4-0.3-0.9-0.4-1.3-0.4c-0.7,0-1.2,0.3-1.5,0.9
			c-0.3,0.6-0.5,1.4-0.5,2.5V50h-1.8V39.6h1.6v1.6h0c0.6-1.2,1.3-1.8,2.2-1.8C88.7,39.3,89.3,39.5,89.9,39.9z"/>
		<path id="XMLID_93_" class="st0" d="M93,50h-1.8V35.6H93V50z"/>
		<path id="XMLID_95_" class="st0" d="M98.2,37.6h-1.8v-2h1.8V37.6z M98.2,50h-1.8V39.6h1.8V50z"/>
		<path id="XMLID_98_" class="st0" d="M109.9,50h-1.8v-6.3c0-1.1-0.2-1.8-0.6-2.2c-0.4-0.4-0.9-0.6-1.6-0.6c-0.5,0-1,0.1-1.5,0.4
			c-0.5,0.3-0.8,0.6-1,1.1c-0.2,0.5-0.3,1.1-0.3,2V50h-1.8V39.6h1.6V41h0c0.4-0.6,0.8-1,1.4-1.3c0.5-0.3,1.2-0.4,1.9-0.4
			c0.5,0,1.1,0.1,1.6,0.3c0.5,0.2,1,0.5,1.3,0.9c0.3,0.4,0.5,0.8,0.6,1.3c0.1,0.4,0.1,1,0.1,1.8V50z"/>
		<path id="XMLID_100_" class="st0" d="M121.6,45.2h-7.8c0.1,1.1,0.4,2,1,2.6c0.6,0.6,1.3,0.9,2.2,0.9c0.7,0,1.2-0.2,1.7-0.5
			c0.5-0.4,0.8-0.9,1-1.6l1.8,0.2c-0.3,1.1-0.8,1.9-1.6,2.5c-0.8,0.6-1.8,0.9-2.9,0.9c-1.6,0-2.8-0.5-3.7-1.4
			c-0.9-1-1.3-2.3-1.3-3.9c0-1.6,0.4-3,1.3-4c0.9-1,2.1-1.5,3.6-1.5c0.8,0,1.5,0.2,2.2,0.5c0.7,0.3,1.3,0.9,1.8,1.7
			S121.6,43.6,121.6,45.2z M119.8,43.8c-0.1-1.1-0.4-1.8-1-2.3c-0.6-0.5-1.2-0.7-1.9-0.7c-0.8,0-1.5,0.3-2,0.8
			c-0.5,0.6-0.8,1.3-0.9,2.2H119.8z"/>
		<path id="XMLID_103_" class="st0" d="M129.5,42.5c-0.1-0.6-0.3-1-0.7-1.3c-0.4-0.3-0.9-0.4-1.6-0.4c-0.7,0-1.2,0.1-1.6,0.3
			c-0.4,0.2-0.6,0.6-0.6,1c0,0.4,0.2,0.7,0.5,0.9c0.3,0.2,1,0.4,2,0.6c1.1,0.3,1.9,0.5,2.5,0.7c0.5,0.2,1,0.5,1.3,0.9
			c0.3,0.4,0.5,0.9,0.5,1.6c0,0.9-0.4,1.7-1.1,2.3c-0.8,0.6-1.8,1-3,1c-1.3,0-2.3-0.3-3.1-0.8c-0.7-0.6-1.2-1.4-1.4-2.5l1.8-0.3
			c0.1,0.7,0.4,1.3,0.8,1.6c0.4,0.4,1.1,0.5,1.9,0.5c0.8,0,1.4-0.2,1.8-0.5c0.4-0.3,0.6-0.7,0.6-1.2c0-0.3-0.1-0.6-0.3-0.8
			c-0.2-0.2-0.4-0.3-0.7-0.4c-0.3-0.1-0.9-0.3-1.9-0.5c-1.5-0.4-2.5-0.8-2.9-1.3c-0.5-0.5-0.7-1.1-0.7-1.8c0-0.9,0.3-1.6,1-2.1
			c0.7-0.6,1.6-0.8,2.8-0.8c1.2,0,2.2,0.2,2.9,0.7c0.7,0.5,1.1,1.2,1.2,2.2L129.5,42.5z"/>
	</g>
	<circle id="XMLID_9_" class="st0" cx="11.1" cy="27" r="0.6"/>
	<path class="st0" d="M25.1,35.6c-0.8,0.5-1.7,0.6-2.6,0.3l-1-0.3c-0.1,0-0.1,0-0.2,0l-0.6,0.8c-0.1,0.1,0,0.2,0.1,0.2l33.9,11.5
		c3.7-5,5.8-11.2,5.8-17.8C60.5,13.5,47,0,30.3,0S0,13.5,0,30.3s13.5,30.3,30.3,30.3c6.5,0,12.6-2.1,17.5-5.6
		c-4.6-2-29.2-12.6-31.1-13.6c-2.2-1.1-4.7-2.7-5.9-6.6c-1.3-3.9-0.8-5.1-1.4-6.8C8.9,26.5,7.8,27,7.8,27s0.2-0.6,0.5-0.9
		c0.4-0.4,1.3-0.6,1.6,0c0.1,0.3,0.2,0.6,0.2,0.9c0.1,0.3,0.2,0.8,0.5,1c0.2,0.1,0.4,0.2,0.6,0c0.1-0.1,0.2-0.2,0.4-0.1
		c0.3,0.1,0.4,0,0.6-0.3c0.2-0.5,0.5-0.5,0.7-0.4c0.3,0.1,0.7,0.4,1,0.6c0.2,0.1,0.2-0.1,0.2-0.2c-0.7-0.6-1.5-1-2-1.4
		c-0.4-0.3-1.2-0.4-1.6-0.4c-0.5-0.1-0.5-0.4-0.4-0.5c0.4-0.3,1.1-0.3,1.7-0.2c0.3,0,1.2,0.3,1.7,0.6c0.6,0.4,2,1,3.4,3.4
		c0.6,0.9,0.7,1.3,1,1.8c0.1,0.2,0.3,0.1,0.2-0.2c-0.1-0.3-0.2-2.5-1.7-5.6c-0.6-1.3-2-2.6-3.1-3.7c-0.9-0.9-0.9-2.1-0.4-2.9
		c0.4-0.7,1.2-1.3,2.7-1.3c0.8,0,38.2,1.5,41,1.6c0.1,0,0.1,0.1,0.1,0.1l-0.5,0.6c-1.1,1.2-2.6,1.8-4.2,1.7l-29.8-2.1
		c-0.1,0-0.2,0.1-0.1,0.2l0.6,0.8c0,0,0.1,0.1,0.1,0.1l26.3,2.1c0.1,0,0.1,0.1,0,0.1l-0.7,0.7c-1,1-2.4,1.5-3.8,1.3l-20.9-2.5
		c-0.1,0-0.2,0.1-0.2,0.2l0.3,1c0,0.1,0.1,0.1,0.1,0.1l17.1,2.1c0.1,0,0.1,0.1,0,0.1l-1.2,0.8c-0.8,0.6-1.8,0.8-2.8,0.6l-12.7-2.1
		c-0.1,0-0.2,0.1-0.2,0.2l0.2,1c0,0.1,0.1,0.1,0.1,0.1l10.3,1.6c0.1,0,0.1,0.1,0,0.1l-1.1,0.8c-0.7,0.5-1.5,0.6-2.3,0.5l-6.7-1.3
		c-0.1,0-0.2,0-0.2,0.1l-0.2,0.9c0,0.1,0,0.2,0.1,0.2l7,1.4c0.1,0,0.1,0.1,0,0.1l-1.4,0.8c-0.7,0.4-1.5,0.5-2.3,0.3l-3.5-1
		c-0.1,0-0.1,0-0.2,0.1l-0.3,0.8c0,0.1,0,0.2,0.1,0.2l4.5,1.2c0.1,0,0.1,0.1,0,0.1l-0.6,0.4C27,34,26,34.1,25.1,33.9l-1.9-0.6
		c-0.1,0-0.1,0-0.2,0.1l-0.5,0.8c-0.1,0.1,0,0.2,0.1,0.2l3,0.8c0.1,0,0.1,0.1,0,0.1L25.1,35.6z M55.9,14.9l-0.5,0.6
		c-1,1.1-2.5,1.7-4,1.7c-7.8-0.2-32.3-0.9-35.5-1c-0.1,0-0.2-0.2-0.1-0.3l0.7-0.7c0.3-0.3,0.7-0.4,1.1-0.4h38.3
		C55.9,14.8,55.9,14.9,55.9,14.9z"/>
</g>
</svg>
